# xmcd
#
# Track frame offsets:
#	150
#	10990
#	21865
#	31575
#	45123
#	58168
#	70068
#	83985
#	94720
#	104145
#	115573
#	124575
#	137400
#	147898
#	161078
#	172430
#	182823
#	195930
#	210765
#	222638
#	234273
#	245788
#	257883
#	269930
#	282553
#
# Disc length: 3917 seconds
#
# Revision: 1
# Processed by: cddbd v1.5.2PL0 Copyright (c) Steve Scherf et al.
# Submitted via: EZCDAudioConverter 6.2.3.1
#
DISCID=700f4b19
DTITLE=Various Artist - A Sentimental Journey Through The 50s test
DYEAR=1995
DGENRE=
TTITLE0=Kathy Kay - Tammy
TTITLE1=The Coronets - Meet Me on the Corner
TTITLE2=Sheila Buxton - Charm
TTITLE3=Tony Brent - Have You Heard
TTITLE4=Jean Campbell - No One Will Ever Know
TTITLE5=Ronnie Harris - Surprisingly
TTITLE6=The Beverly Sisters - Hurry Home to Me
TTITLE7=Jill Day - A Tear Fell
TTITLE8=Russ Conway - Royal Event
TTITLE9=Gary Miller - From the Time You Say Goodbye
TTITLE10=The Coronets - My Lucky Number
TTITLE11=Lee Lawrence - Lonely Ballerina
TTITLE12=Pearl Carr and Teddy Johnson - How Lucky You Are
TTITLE13=Tony Brent - Give Me the Right to be Wrong
TTITLE14=Sheila Buxton - The In-Between Age
TTITLE15=Eddie Calvert - Erica
TTITLE16=Jean Campbell - Where Can I Go without You
TTITLE17=Pearl Carr and Teddy Johnson - No-One Could Love You (More than I Do)
TTITLE18=Barbara Lyon - The Birds and the Bees
TTITLE19=David Hughes - Make Me Love You
TTITLE20=Fay Brown - Unsuspecting Heart
TTITLE21=Gary Miller - My Darling, My Darling
TTITLE22=Billy Anthony - I'd Rather Take My Time
TTITLE23=Tony Brent - Waltzing the Blues without You
TTITLE24=Pearl Carr - Take Me in Your Arms and Hold Me
EXTD=
EXTT0=
EXTT1=
EXTT2=
EXTT3=
EXTT4=
EXTT5=
EXTT6=
EXTT7=
EXTT8=
EXTT9=
EXTT10=
EXTT11=
EXTT12=
EXTT13=
EXTT14=
EXTT15=
EXTT16=
EXTT17=
EXTT18=
EXTT19=
EXTT20=
EXTT21=
EXTT22=
EXTT23=
EXTT24=
PLAYORDER=
